<?xml version="1.0" standalone="no"?>
<!DOCTYPE svg PUBLIC "-//W3C//DTD SVG 20010904//EN"
 "http://www.w3.org/TR/2001/REC-SVG-20010904/DTD/svg10.dtd">
<svg version="1.0" xmlns="http://www.w3.org/2000/svg"
 width="588.000000pt" height="501.000000pt" viewBox="0 0 588.000000 501.000000"
 preserveAspectRatio="xMidYMid meet">

<g transform="translate(0.000000,501.000000) scale(0.100000,-0.100000)"
fill="#228B22" stroke="none">
<path d="M260 4992 c22 -10 61 -17 105 -17 44 0 83 7 105 17 34 16 32 16 -105
16 -137 0 -139 0 -105 -16z"/>
<path d="M2485 4764 c-574 -34 -1082 -424 -1259 -967 -62 -190 -60 -151 -64
-1007 -3 -848 -3 -868 50 -1044 136 -461 530 -836 1003 -956 180 -45 289 -52
765 -47 408 4 453 6 542 26 361 80 670 279 882 571 107 148 168 276 219 460
l32 115 3 785 c3 875 3 885 -63 1086 -142 435 -499 788 -931 920 -174 53 -208
56 -679 58 -242 2 -467 2 -500 0z m466 -394 c20 -6 128 -63 240 -126 112 -64
236 -134 274 -155 350 -190 593 -332 610 -354 14 -18 20 -42 20 -77 0 -47 -3
-53 -46 -92 -29 -26 -122 -80 -247 -144 -110 -56 -203 -102 -206 -102 -3 0 -6
26 -6 58 l0 57 78 38 c42 21 113 63 156 94 94 66 103 51 -99 157 -244 127
-405 181 -639 212 -224 29 -490 -4 -731 -91 -148 -53 -445 -209 -445 -233 0
-4 24 -20 54 -35 29 -15 89 -48 132 -73 44 -25 89 -46 102 -46 21 0 22 -5 22
-75 l0 -75 -127 67 c-371 195 -373 196 -373 288 0 40 5 53 33 81 17 19 68 53
112 76 44 24 280 155 525 293 245 137 456 253 470 258 35 10 50 10 91 -1z m51
-540 c206 -15 373 -62 561 -157 59 -30 107 -58 107 -62 0 -4 -18 -17 -40 -30
l-39 -22 -103 50 c-187 91 -364 131 -571 131 -217 -1 -419 -46 -604 -137 l-91
-45 -41 23 c-23 12 -41 26 -41 31 0 13 142 87 249 128 115 45 238 77 346 89
97 12 123 12 267 1z m-962 -534 l175 -94 3 -85 3 -84 -47 -18 c-104 -40 -165
-140 -166 -270 -1 -121 75 -234 184 -272 39 -14 48 -22 52 -48 8 -40 66 -160
100 -205 50 -65 110 -122 207 -196 114 -86 209 -188 290 -310 32 -49 61 -93
64 -99 3 -6 7 -6 11 2 3 6 36 59 74 116 81 122 174 221 285 302 136 99 214
196 271 338 31 77 33 79 90 106 64 30 111 77 146 144 34 65 32 174 -5 249 -30
62 -91 121 -144 140 -18 7 -33 17 -34 23 -2 42 0 167 3 170 1 1 81 42 177 90
134 67 176 84 182 73 5 -7 8 -362 6 -788 -2 -700 -4 -778 -19 -805 -24 -45
-51 -66 -188 -148 -124 -74 -284 -171 -495 -302 -297 -184 -304 -187 -350
-193 -37 -4 -52 0 -85 22 -38 25 -569 341 -795 473 -60 36 -121 75 -133 86
-54 50 -52 15 -52 877 0 440 3 800 8 800 4 0 86 -43 182 -94z m511 -252 c237
-123 260 -132 348 -140 84 -8 111 2 371 140 110 58 205 107 210 109 7 1 11
-106 12 -308 2 -348 -2 -375 -68 -507 -111 -221 -392 -354 -640 -302 -177 36
-322 146 -408 308 -57 108 -59 125 -64 484 -4 325 -3 334 15 328 11 -4 111
-54 224 -112z m-331 -294 c0 -203 -3 -210 -63 -140 -76 89 -76 202 1 283 60
62 62 59 62 -143z m1433 131 c80 -88 68 -226 -24 -292 l-29 -20 0 175 c0 97 4
176 9 176 5 0 25 -18 44 -39z"/>
<path d="M3184 2359 c-70 -77 -167 -120 -275 -120 -82 0 -141 23 -213 83 -57
48 -48 22 15 -47 82 -89 219 -116 329 -64 70 32 118 75 148 128 26 46 25 52
-4 20z"/>
<path d="M981 1885 c-3 -96 53 -336 110 -470 53 -122 61 -138 117 -230 116
-188 226 -315 382 -440 136 -110 241 -169 420 -238 260 -100 357 -110 991
-104 466 4 499 5 584 26 215 53 441 155 590 268 87 65 236 207 282 268 13 17
37 48 54 70 49 63 139 213 180 300 39 80 108 308 128 419 21 114 10 120 -19
11 -69 -267 -184 -484 -356 -677 -30 -33 -51 -65 -47 -71 3 -5 2 -7 -4 -4 -5
3 -34 -16 -64 -44 -64 -59 -206 -161 -284 -205 -30 -17 -52 -34 -47 -39 4 -4
2 -5 -4 -2 -5 3 -41 -9 -80 -27 -97 -46 -240 -91 -374 -118 -111 -22 -134 -23
-625 -23 -491 0 -514 1 -625 23 -218 43 -408 120 -600 243 -62 40 -219 169
-264 217 -17 17 -34 29 -38 26 -5 -3 -7 -1 -6 4 2 5 -20 38 -48 73 -179 227
-285 449 -339 714 -9 40 -13 50 -14 30z"/>
</g>
</svg>